<svg width="51" height="57" viewBox="0 0 51 57" fill="none" xmlns="http://www.w3.org/2000/svg">
<path d="M11.1455 11.3594C10.839 11.3594 10.5782 11.602 10.5782 11.8985L10.5882 12.7482C10.8959 12.7288 10.6066 13.534 10.5882 13.8676C10.5882 13.8676 38.491 14.0946 38.491 13.7981L38.452 11.8985C38.452 11.602 38.2012 11.3594 37.8947 11.3594H11.1455ZM23.9824 22.3642L11.1455 22.3348C10.839 22.3348 10.6696 22.2887 10.6696 22.5852L10.6835 23.0974C10.6835 23.3939 10.4658 25.3985 10.7723 25.3985L24.105 25.3471C24.4115 25.3471 24.3261 23.3243 24.3261 23.0278V22.6791C24.3261 22.3826 24.2889 22.3642 23.9824 22.3642ZM20.5886 51.854L2.59572 51.8661L2.59015 2.3637L46 2.26902L46.3526 25.9973C46.3526 26.2938 46.2948 26.5778 46.6013 26.5778L48.0521 26.6044C48.3586 26.6044 48.278 26.2491 48.278 25.9526L48.2566 2.23809C48.2566 1.04532 47.2605 0.0537109 46.0275 0.0537109L2.2291 0.146976C0.99613 0.146976 0 0.597598 0 1.79036V52.309C0 53.5017 1.29462 54.4654 2.52759 54.4654L20.5073 54.1669C20.8138 54.1669 21.1019 53.8898 21.1019 53.5933L21.0848 52.466C21.0848 52.1695 20.8951 51.854 20.5886 51.854ZM49.9628 48.1408L41.2384 48.0009V45.5126C44.4636 44.5826 45.3463 39.6252 45.1749 36.2058C44.8828 30.3791 39.0779 29.2856 38.972 29.2679C37.4004 29.0044 33.0567 31.7056 32.8119 36.2556C32.6186 39.8484 34.9608 44.7576 36.6636 45.6875L36.7802 48.0009L28.3878 47.9887C27.7747 47.9887 27.7601 48.1793 27.7601 48.7723L27.8424 55.2709C27.8424 55.8639 28.1058 55.8845 28.7188 55.8845L48.6724 56.0447C49.2854 56.0447 50.266 56.1596 50.266 55.5666L50.3849 49.6344C50.3849 49.0414 50.5758 48.1408 49.9628 48.1408ZM35.4881 36.1974C35.4881 34.3375 37.0867 31.1698 39.0093 31.1698C40.9319 31.1698 42.4923 34.433 42.4923 36.2929C42.4923 38.1528 41.2817 44.0256 39.3591 44.0256C37.4365 44.0256 35.4881 38.0573 35.4881 36.1974ZM48.065 54.2181H29.9536V50.1748H48.065V54.2181Z" fill="#5FC544"/>
</svg>
