<svg width="49" height="49" viewBox="0 0 49 49" fill="none" xmlns="http://www.w3.org/2000/svg">
<path d="M48.2005 43.3337L47.0686 43.3312L47.0539 16.9651C47.0539 15.5768 46.3295 14.7128 44.9412 14.7128L40.0167 14.7063V16.1223H44.9167C45.4067 16.1223 45.7333 16.449 45.7333 16.939V43.889C45.7333 44.379 46.06 44.7057 46.55 44.7057H47.3667L47.3503 47.4611L1.63333 47.4758V44.7057H2.45L44.0788 44.6918L44.0779 43.3345L3.28382 43.3157L3.26667 16.939C3.26667 16.449 3.16295 16.1501 3.65295 16.1501L9.8 16.1248V14.6973L3.2634 14.7046C1.87507 14.7046 1.82362 15.5507 1.82362 16.939L1.84648 43.3427L0.68845 43.3288C0.19845 43.3288 0 43.399 0 43.889V47.1557C0 48.1357 0.653333 48.789 1.63333 48.789H47.3667C48.3467 48.789 49 48.1357 49 47.1557V43.889C49 43.399 48.6905 43.3337 48.2005 43.3337Z" fill="#5FC544"/>
<path d="M22.3271 25.5819L22.341 30.201L20.2691 30.2059C19.7791 30.2059 19.5994 30.3324 19.5994 30.8224V40.1447L5.71612 40.1659V18.5724H9.79945L9.79047 17.2601L4.68222 17.2862C4.19222 17.2862 4.30002 17.2658 4.30002 17.7558L4.28613 40.6224C4.28613 41.1124 4.40945 41.4391 4.89945 41.4391H44.0994C44.5894 41.4391 44.6384 41.1124 44.6384 40.6224L44.6556 17.808C44.6556 17.318 44.5894 16.9391 44.0994 16.9391H40.0161V18.5724H43.2828V40.1447H30.2161V30.8224C30.2161 30.3324 29.9074 30.2099 29.4174 30.2099L27.4329 30.2246L27.4256 25.5696C33.3056 24.263 37.6519 18.9808 37.6519 12.8558C37.6519 5.66911 31.9311 0.0537109 24.7444 0.0537109C17.5578 0.0537109 11.8101 5.66911 11.8101 12.8558C11.8101 19.0624 16.2838 24.3569 22.3271 25.5819ZM28.5828 40.1022L21.2328 40.081V38.1724H25.3161L25.3022 36.8241L21.2401 36.8307L21.2328 34.9058H25.3161L25.3022 33.5085H21.2328V31.6391H28.5828V40.1022ZM24.7444 1.42244C31.0328 1.42244 36.1778 6.56744 36.1778 12.8558C36.1778 18.4091 32.1761 23.1458 26.7861 24.0441C26.4594 24.1258 26.1328 24.4524 26.1328 24.8608L26.1238 30.2099L23.6787 30.201L23.6828 24.9424C23.6828 24.5341 23.4378 24.2074 23.0294 24.1258C17.3944 23.3091 13.3111 18.5724 13.3111 12.8558C13.3111 6.56744 18.4561 1.42244 24.7444 1.42244Z" fill="#5FC544"/>
<path d="M24.7448 22.3911C30.1348 22.3911 34.3856 18.2457 34.3856 12.8557C34.3856 7.46566 30.1348 3.05566 24.7448 3.05566H24.4998C19.1098 3.219 15.0771 7.54733 15.0771 12.8557C15.0771 18.2457 19.3548 22.3911 24.7448 22.3911ZM32.8299 12.244L25.3108 12.2383L25.3165 10.4057H30.2165L30.2443 9.08511L25.3377 9.09165L25.3165 7.95566H26.9498V6.62205L25.3165 6.64165V4.689C29.2365 5.01566 32.4215 8.32398 32.8299 12.244ZM23.9543 4.67266L23.987 12.8557C23.987 13.3457 24.0098 13.6723 24.4998 13.6723H32.9115C32.4215 17.7557 28.9915 21.0223 24.7448 21.0223C20.2532 21.0223 16.5782 17.3473 16.5782 12.8557C16.5782 8.69066 19.871 5.24433 23.9543 4.67266Z" fill="#5FC544"/>
<path d="M11.4337 27.5557H8.16699V29.189H11.4337V27.5557Z" fill="#5FC544"/>
<path d="M11.4337 23.4722H8.16699V25.1055H11.4337V23.4722Z" fill="#5FC544"/>
<path d="M17.1495 27.5557H13.8828V29.189H17.1495V27.5557Z" fill="#5FC544"/>
<path d="M17.1495 31.6392H13.8828V33.2725H17.1495V31.6392Z" fill="#5FC544"/>
<path d="M11.4337 31.6392H8.16699V33.2725H11.4337V31.6392Z" fill="#5FC544"/>
<path d="M11.4337 35.7222H8.16699V37.3555H11.4337V35.7222Z" fill="#5FC544"/>
<path d="M17.1495 35.7222H13.8828V37.3555H17.1495V35.7222Z" fill="#5FC544"/>
<path d="M35.1173 27.5557H31.8506V29.189H35.1173V27.5557Z" fill="#5FC544"/>
<path d="M40.834 27.5557H37.5674V29.189H40.834V27.5557Z" fill="#5FC544"/>
<path d="M40.834 23.4722H37.5674V25.1055H40.834V23.4722Z" fill="#5FC544"/>
<path d="M40.834 31.6392H37.5674V33.2725H40.834V31.6392Z" fill="#5FC544"/>
<path d="M35.1173 31.6392H31.8506V33.2725H35.1173V31.6392Z" fill="#5FC544"/>
<path d="M35.1173 35.7222H31.8506V37.3555H35.1173V35.7222Z" fill="#5FC544"/>
<path d="M40.834 35.7222H37.5674V37.3555H40.834V35.7222Z" fill="#5FC544"/>
</svg>
