<svg width="16" height="17" viewBox="0 0 16 17" fill="none" xmlns="http://www.w3.org/2000/svg">
<path fill-rule="evenodd" clip-rule="evenodd" d="M8 16.3994C11.866 16.3994 15 13.188 15 9.22655C15 5.2651 11.866 2.05371 8 2.05371C4.13401 2.05371 1 5.2651 1 9.22655C1 12.7619 3.49603 15.6998 6.78083 16.291V11.4201H5V9.39562H6.78083V7.85262C6.78083 6.09757 7.82742 5.12773 9.43013 5.12773C10.1973 5.12773 11 5.26453 11 5.26453V6.9881H10.1151C9.24383 6.9881 8.97261 7.52843 8.97261 8.08243V9.39562H10.9178L10.6069 11.4201H8.97261V16.3145C8.63409 16.3676 8.28819 16.3962 7.93608 16.3991C7.95737 16.3993 7.97867 16.3994 8 16.3994Z" fill="black"/>
</svg>
