<svg width="48" height="56" viewBox="0 0 48 56" fill="none" xmlns="http://www.w3.org/2000/svg">
<path d="M47.0204 0.0537109H5.8261C5.52489 0.0537109 5.22904 0.0766998 4.93998 0.120979C2.14645 0.549015 0 2.96846 0 5.87968V49.4972C0 52.7096 2.61354 55.3231 5.8261 55.3231H15.2985C16.6158 55.3231 17.8319 54.8832 18.8089 54.1433C18.8514 54.1154 18.8915 54.083 18.9301 54.0479C19.7379 53.402 20.3704 52.5465 20.7445 51.5639H47.0204C47.5614 51.5639 48 51.1253 48 50.5843V1.03335C48 0.492327 47.5614 0.0537109 47.0204 0.0537109ZM6.50244 9.7465C6.63319 8.95626 7.00454 8.22846 7.58239 7.65125C8.31163 6.92097 9.28213 6.51892 10.3153 6.51892H19.1115C18.8059 8.34784 17.2129 9.7465 15.2985 9.7465H6.50244ZM5.8261 2.01298H15.2985C15.4984 2.01298 15.6948 2.02827 15.8866 2.05766C17.296 2.27357 18.457 3.25334 18.933 4.55965H10.3153C8.75835 4.55965 7.29542 5.16598 6.19692 6.26592C5.30062 7.16104 4.7323 8.29755 4.55205 9.52994C3.04419 9.00211 1.95927 7.5657 1.95927 5.87981C1.95927 3.7476 3.69402 2.01298 5.8261 2.01298ZM1.95927 10.2324C2.98881 11.148 4.34319 11.7056 5.8261 11.7056H7.7488L16.3398 20.2965L1.95927 34.6771V10.2324ZM19.1652 49.4972C19.1652 50.4277 18.8348 51.2825 18.285 51.9503L9.49268 43.158C9.1101 42.7754 8.4898 42.7754 8.10735 43.158C7.72477 43.5406 7.72477 44.1609 8.10735 44.5433L16.6739 53.1099C16.2463 53.2733 15.7827 53.3637 15.2984 53.3637H5.82597C3.69389 53.3637 1.95914 51.6291 1.95914 49.497V38.3954L4.45003 40.8863C4.64126 41.0775 4.89205 41.1733 5.1427 41.1733C5.39336 41.1733 5.64415 41.0776 5.83537 40.8863C6.21795 40.5037 6.21795 39.8834 5.83537 39.501L2.87073 36.5363L7.29804 32.1091L19.1652 43.9763V49.4972ZM19.1652 35.0641C19.1651 35.0721 19.1651 35.0799 19.1652 35.0879V41.2055L8.68337 30.7237L17.725 21.682L19.1651 23.1221V35.0641H19.1652ZM19.1652 20.3514L10.5195 11.7058H15.2984C16.7812 11.7058 18.1357 11.148 19.1652 10.2324V20.3514ZM19.6513 2.01298H30.7468L21.1245 11.6359V5.87968C21.1245 4.3969 20.5669 3.04252 19.6513 2.01298ZM28.1264 29.0891C25.9842 26.1412 26.2993 22.1313 28.8762 19.5545C30.3115 18.1191 32.1969 17.4015 34.0824 17.4015C35.9678 17.4015 37.8532 18.1193 39.2885 19.5545C41.8654 22.1313 42.1807 26.1412 40.0383 29.0891L34.0824 37.2844L28.1264 29.0891ZM30.9831 36.3524L21.1246 46.2098V35.4809L26.4688 30.1358C26.4933 30.1706 26.5166 30.2063 26.5416 30.2409L30.9831 36.3524ZM27.4907 18.1692C25.9224 19.7375 24.963 21.8189 24.7891 24.03C24.6725 25.5141 24.9161 26.9952 25.4821 28.3516L21.1245 32.71V14.406L22.6905 12.8408L27.7615 17.9118C27.6703 17.9961 27.5793 18.0806 27.4907 18.1692ZM21.1245 49.6047V48.9806L32.1492 37.957L33.2899 39.5266C33.4742 39.7802 33.7689 39.9303 34.0824 39.9303C34.3958 39.9303 34.6905 39.7802 34.8748 39.5266L35.7782 38.2836L42.6009 45.1071L38.1023 49.6047H21.1245ZM46.0407 49.6047H40.8735L43.9862 46.4926L46.0407 48.5473V49.6047ZM46.0407 45.7762L36.9443 36.6789L40.9782 31.1285L46.0407 36.191V45.7762ZM46.0407 33.4201L42.1128 29.4922C43.0796 27.8506 43.5259 25.9425 43.3756 24.03C43.2017 21.8189 42.2422 19.7375 40.6739 18.1692C40.4023 17.8976 40.1167 17.6488 39.8215 17.4178L46.0407 11.1986V33.4201ZM46.0407 8.42765L38.1121 16.3564C35.3336 15.0274 32.0289 15.1503 29.3493 16.7287L24.0762 11.4556L33.5176 2.01298H46.0407V8.42765Z" fill="#5FC544"/>
</svg>
