<svg width="48" height="58" viewBox="0 0 48 58" fill="none" xmlns="http://www.w3.org/2000/svg">
<path d="M16.6511 0.200462C14.4834 0.660934 12.4228 2.40173 11.732 4.35592C11.601 4.72654 11.3151 6.24272 11.1007 7.7252L10.7077 10.4206L8.33747 10.4768C5.75285 10.5329 5.55037 10.5891 5.28834 11.1843C5.08586 11.6336 5.22878 12.7117 5.57419 13.4418C5.97916 14.2728 6.86055 15.1376 7.74194 15.5644C8.34938 15.8564 8.63524 15.9126 9.64764 15.9687L10.8387 16.0361L10.8744 17.0806C10.9102 18.1026 10.8983 18.1363 10.529 18.5743C9.99305 19.2257 9.83821 19.7199 9.8263 20.8766C9.8263 21.7639 9.86203 21.966 10.1598 22.4939C10.5529 23.2239 11.1722 23.7181 11.9226 23.8978L12.4824 24.0325L12.6849 24.9759C13.2566 27.5928 14.8883 29.9737 17.068 31.3664L17.6873 31.7594V32.5793C17.6873 33.3542 17.461 34.1741 17.2467 34.1741C17.199 34.1741 16.6749 34.2527 16.1032 34.3426L15.0551 34.5223L14.7097 34.2415C14.1856 33.8259 13.7926 33.8035 12.1846 34.0618C10.4337 34.3538 10.0645 34.4998 9.67146 35.0613C9.39752 35.4544 9.32605 35.4881 8.46849 35.6117C7.2536 35.7914 6.38412 36.0946 5.25261 36.7348C3.33499 37.8129 1.84174 39.7222 1.04372 41.609C0.257616 43.4509 0.322017 43.4172 0.322017 49.729L0 55.4567L0.35732 56.0632C0.547891 56.3889 0.869479 56.782 1.07196 56.928C1.97717 57.5682 0.583623 57.0486 24 57.0486C47.4045 57.0486 46.0109 57.5682 46.9161 56.9168C47.1305 56.7595 47.464 56.3665 47.6546 56.052L48 55.4567L47.7424 49.729C47.7424 43.4172 47.6136 43.6938 46.8275 41.8519C45.8747 39.5945 44.0695 37.2065 41.6993 36.1957C41.0084 35.8924 39.4362 35.5218 38.9002 35.5218C38.7454 35.5218 38.531 35.3533 38.3404 35.0838C37.9355 34.4998 37.5782 34.3538 35.8154 34.0618C34.2074 33.8035 33.8144 33.8259 33.2903 34.2415L32.9449 34.5223L31.8968 34.3426C31.3251 34.2527 30.801 34.1741 30.7534 34.1741C30.539 34.1741 30.3127 33.3542 30.3127 32.5793L30.3246 31.7594L30.932 31.3664C33.0878 29.9962 34.7553 27.5703 35.3151 24.9759L35.5176 24.0325L36.0774 23.8978C36.8278 23.7181 37.4471 23.2239 37.8521 22.4939C38.138 21.966 38.1737 21.7639 38.1737 20.8766C38.1618 19.7199 38.007 19.2257 37.471 18.5743C37.1017 18.1363 37.0898 18.1026 37.1256 17.0806L37.1613 16.0361L38.2928 15.9799C39.198 15.9238 39.5792 15.8564 40.1628 15.5981C41.068 15.205 41.997 14.329 42.4258 13.4418C42.7712 12.7117 42.9141 11.6336 42.7117 11.1843C42.4496 10.5891 42.2471 10.5329 39.6625 10.4768L37.2923 10.4206L36.8993 7.7252C36.3752 4.1313 36.0536 3.28897 34.6124 1.94126C33.2308 0.63847 31.3846 -0.0466156 29.598 0.0656929C29.1097 0.0993843 28.1449 0.211697 27.4541 0.324005C25.727 0.593548 22.261 0.593548 20.5459 0.324005C18.8308 0.043232 17.5444 0.00953674 16.6511 0.200462ZM19.5931 1.88511C22.4516 2.36804 25.3459 2.35681 28.5618 1.86264C29.6218 1.70541 29.9792 1.69418 30.6223 1.79526C32.6471 2.12096 34.2551 3.53606 34.7077 5.3667C34.8506 5.95071 35.4342 9.89278 35.4342 10.2634C35.4342 10.4768 35.2199 10.9019 26.799 10.9019L18.1519 10.4768L17.866 10.7576C17.4849 11.1057 17.4849 11.5325 17.866 11.8807L18.1519 12.1614H41.0442L40.9727 12.4085C40.8417 12.8016 40.4963 13.307 40.1151 13.6439C39.3529 14.329 40.3176 14.7204 24 14.7204C7.68238 14.7204 8.64715 14.329 7.88486 13.6439C7.50372 13.307 7.15831 12.8016 7.0273 12.4085L6.95583 12.1614H14.6025L14.8883 11.8807C15.0551 11.7347 15.1861 11.4763 15.1861 11.3191C15.1861 11.1619 15.0551 10.9036 14.8883 10.7576C14.6263 10.4992 14.5072 10.4768 13.5782 10.4768C12.6015 10.4768 12.5658 10.4656 12.5658 10.2185C12.5658 9.83662 13.1375 6.00687 13.2923 5.3667C13.6973 3.71575 15.1027 2.33434 16.8536 1.89634C17.7112 1.68295 18.3543 1.68295 19.5931 1.88511ZM14.1141 15.9799V18.462L13.7926 18.2935C13.602 18.2149 13.2804 18.1026 13.0779 18.0577L12.6849 17.9791V15.9799H14.1141ZM32.0993 17.8331C32.0993 19.8659 32.1826 20.2028 32.7543 20.4499C33.2665 20.6745 33.6715 20.6071 34.267 20.2028C34.5767 20.0006 35.0888 19.7648 35.3866 19.6862C35.9226 19.5402 35.9583 19.5514 36.1727 19.7872C36.3395 19.9894 36.3871 20.2365 36.3871 20.8654C36.3871 21.9997 36.2203 22.1794 35.065 22.2805C33.9811 22.3704 33.8263 22.5164 33.7191 23.6282C33.4452 26.1664 32.6762 28.8672 30.6276 30.4059C27.8167 32.5285 23.3899 32.5099 20.0907 31.2296C16.577 29.8706 14.6501 27.1098 14.2809 23.6282C14.1737 22.5164 14.0189 22.3704 12.935 22.2805C11.7797 22.1794 11.6129 21.9997 11.6129 20.8654C11.6129 20.2477 11.6605 19.9894 11.8273 19.7985C12.0179 19.5739 12.0774 19.5626 12.6015 19.6862C12.8993 19.7648 13.4114 20.0006 13.7211 20.2028C14.3404 20.6183 14.7692 20.6745 15.2933 20.4274C15.8293 20.1579 15.9007 19.8434 15.9007 17.8331V15.9799H32.0993V17.8331ZM35.3151 15.9799V17.9791L34.934 18.0577C34.7196 18.1026 34.398 18.2149 34.2194 18.2935L33.8859 18.462V15.9799H35.3151ZM20.9628 33.1184C21.9395 33.3992 22.2134 33.4216 24 33.4216C25.9891 33.4216 26.3702 33.3655 28.3236 32.7478C28.4903 32.7028 28.5261 32.759 28.5261 33.0735C28.5261 33.2756 28.6094 33.7473 28.7047 34.0955C28.8 34.4549 28.8834 34.7693 28.8834 34.7918C28.8834 34.8704 24.0953 39.0034 24 39.0034C23.9047 39.0034 19.1166 34.8704 19.1166 34.7918C19.1166 34.7693 19.2 34.4549 19.2953 34.0955C19.3906 33.7473 19.4739 33.2756 19.4739 33.0735C19.4739 32.759 19.5097 32.7028 19.6883 32.7478C19.7955 32.7927 20.3792 32.9499 20.9628 33.1184ZM13.5186 40.0703V44.6189H11.2556L11.2794 40.2725L11.3151 35.9261L12.3871 35.7352C12.9826 35.6341 13.471 35.5443 13.4948 35.533C13.5067 35.533 13.5186 37.5658 13.5186 40.0703ZM36.7444 37.6445C36.804 39.2842 36.8159 39.374 37.0898 39.5762C37.4471 39.857 37.995 39.8457 38.2928 39.565C38.4953 39.374 38.531 39.1943 38.531 38.2622V37.1728L39.1385 37.2514C41.7469 37.5771 44.4268 39.6436 45.5464 42.193C46.2134 43.7204 46.2849 44.4616 46.2491 50.1108L46.2134 55.1984L45.8204 55.5241L45.4392 55.8498H41.5087V53.963C41.5087 51.2227 41.1633 50.0659 39.9603 48.7182C39.3886 48.078 39.067 47.5277 38.7573 46.6517C38.5787 46.1575 38.531 45.7083 38.531 44.2707V42.4962L38.2213 42.2716C37.7926 41.9571 37.5067 41.9796 37.0898 42.3615C36.7563 42.6759 36.7444 42.7433 36.7444 43.653V44.6189H34.4814V35.5667L35.5891 35.7464L36.6849 35.9261L36.7444 37.6445ZM19.8789 37.7905C21.3677 39.082 22.0467 39.7446 21.9514 39.8008C21.6298 39.9693 20.2958 40.1377 19.8551 40.0591C19.2357 39.958 18.6402 39.6548 18.1995 39.2056C17.7231 38.7339 15.9722 36.1957 16.0675 36.117C16.1509 36.0384 16.9132 35.8924 17.3419 35.87C17.5921 35.8587 18.128 36.2631 19.8789 37.7905ZM31.3608 35.9598C31.6347 36.016 31.8968 36.0834 31.9325 36.117C32.0516 36.2181 30.0268 39.0371 29.5623 39.4189C29.3122 39.6211 28.8238 39.8682 28.4427 39.9693C27.871 40.1265 27.6447 40.1377 26.9777 40.0254C26.5489 39.9468 26.132 39.8457 26.0486 39.8008C25.8462 39.6773 30.265 35.8587 30.5985 35.8587C30.7414 35.87 31.0749 35.9149 31.3608 35.9598ZM9.46898 41.5978C9.46898 47.0223 9.43325 47.202 7.89677 48.8642C7.39653 49.4145 6.84864 50.5039 6.65806 51.3462C6.56278 51.8067 6.49132 52.795 6.49132 53.963V55.8498H2.56079L2.17965 55.5241L1.7866 55.1984L1.75087 50.1108C1.72705 45.9329 1.75087 44.8547 1.90571 44.0236C2.33449 41.6651 3.75186 39.6436 5.89578 38.3408C6.9201 37.7118 8.2541 37.2626 9.20695 37.2177L9.46898 37.2065V41.5978ZM17.1156 40.5757C17.7707 41.1597 18.7117 41.5865 19.7241 41.7325C20.4268 41.8336 20.665 41.8111 21.9871 41.5191C22.797 41.3394 23.7022 41.2047 24 41.2047C24.2978 41.2047 25.203 41.3394 26.0129 41.5191C27.335 41.8111 27.5732 41.8336 28.2759 41.7325C29.8839 41.4967 30.8844 40.8228 32.0397 39.1943L32.6948 38.2734L32.671 41.4181L32.6352 44.5627H15.3648L15.329 41.4181L15.3052 38.2734L15.9603 39.1943C16.3176 39.6997 16.8417 40.3174 17.1156 40.5757ZM36.6253 46.4158C36.7563 46.4832 36.935 46.7977 37.0422 47.1683C37.3161 48.0331 37.7092 48.7631 38.3285 49.4707C39.5434 50.8858 39.7221 51.4698 39.7221 54.0192V55.8498H8.27792V54.0192C8.27792 51.4698 8.45658 50.8858 9.67146 49.4707C10.2908 48.7631 10.6839 48.0331 10.9578 47.1683C11.065 46.8201 11.2437 46.4832 11.3509 46.4158C11.51 46.331 19.9119 45.563 26.9852 45.5756C32.0887 45.5849 36.5005 46.3499 36.6253 46.4158Z" fill="#5FC544"/>
</svg>
