<svg width="49" height="43" viewBox="0 0 49 43" fill="none" xmlns="http://www.w3.org/2000/svg">
<path d="M47.3649 2.79433L31.952 0.0684545C31.843 0.0493643 31.7269 0.0489806 31.618 0.0684545L16.3722 2.76478L1.12632 0.0684545C0.847164 0.0188583 0.560235 0.0957949 0.342856 0.278063C0.125477 0.460332 0 0.729417 0 1.01308V38.3674C0 38.8328 0.333935 39.231 0.792292 39.3121L16.2052 42.0379C16.3126 42.0618 16.4314 42.0559 16.5392 42.0379L31.785 39.3416L47.0309 42.0379C47.0864 42.0478 47.1424 42.0526 47.1979 42.0526C47.4215 42.0526 47.6402 41.9743 47.8144 41.8283C48.0317 41.6461 48.1572 41.377 48.1572 41.0933V3.73896C48.1572 3.2736 47.8233 2.87529 47.3649 2.79433ZM3.85699 37.9055L1.91861 37.5629V16.5574C1.92082 16.5552 1.92322 16.5534 1.92543 16.5513L2.82996 15.6467L9.53139 22.3482L6.80417 25.0754C6.42956 25.45 6.42956 26.0574 6.80417 26.4321C6.99153 26.6195 7.23701 26.7131 7.4825 26.7131C7.72799 26.7131 7.97347 26.6195 8.16083 26.4321L15.4128 19.1802V29.9611L12.2512 26.6718C11.884 26.2899 11.2768 26.2778 10.8948 26.6449C10.5129 27.012 10.5008 27.6193 10.8679 28.0013L12.2849 29.4754L3.87829 37.882C3.87071 37.8896 3.86428 37.8978 3.85699 37.9055ZM15.4129 39.9494L6.16086 38.3131L13.6149 30.8591L15.4129 32.73V39.9494ZM15.4129 16.4668L10.8881 20.9915L4.1867 14.2901L8.25004 10.2267L12.5121 14.4888C12.6995 14.6761 12.945 14.7697 13.1905 14.7697C13.436 14.7697 13.6814 14.6761 13.8688 14.4888C14.2434 14.1141 14.2434 13.5067 13.8688 13.132L9.60669 8.86991L11.0388 7.43776C11.4135 7.06315 11.4135 6.45571 11.0388 6.08101C10.6641 5.7064 10.0569 5.7064 9.68209 6.08101L1.91861 13.8447V2.15696L15.4129 4.54343V16.4668ZM30.8257 37.5628L17.3315 39.9493V32.7956L22.7337 29.6934C23.1932 29.4296 23.3516 28.8433 23.0878 28.3837C22.8241 27.9243 22.2378 27.7657 21.7783 28.0296L17.3315 30.5832V17.4478L22.4396 14.5243L30.8257 30.7494V37.5628ZM30.8257 26.5708L24.1063 13.5704L30.8257 9.72474V26.5708ZM30.8257 7.51412L17.3315 15.2372V4.54343L30.8257 2.15687V7.51412ZM46.2386 39.9493L36.6333 38.2506L43.3675 31.5165C43.7421 31.1419 43.7421 30.5344 43.3675 30.1597C42.9928 29.7851 42.3855 29.7851 42.0107 30.1597L34.4322 37.7382C34.3985 37.772 34.3689 37.8081 34.3413 37.8453L32.7443 37.5629V2.15696L46.2386 4.54343V15.0918L37.598 23.7324C37.2234 24.107 37.2234 24.7144 37.598 25.0891C37.7854 25.2765 38.0309 25.3701 38.2764 25.3701C38.5218 25.3701 38.7673 25.2765 38.9547 25.0891L39.7633 24.2805L46.2386 30.7558V39.9493ZM46.2386 17.8052V28.0424L41.12 22.9238L46.2386 17.8052Z" fill="#5FC544"/>
</svg>
