<svg width="63" height="55" viewBox="0 0 63 55" fill="none" xmlns="http://www.w3.org/2000/svg">
<path d="M29.378 1.79031C28.4592 2.70906 27.698 3.52281 27.7111 3.60156C27.7242 3.66719 28.0524 4.02156 28.433 4.37594L29.1549 5.03219L29.798 4.38906L30.4542 3.74594V13.7734H32.5542V3.74594L33.2105 4.38906L33.8536 5.03219L34.5755 4.37594C34.9561 4.02156 35.2842 3.66719 35.2974 3.60156C35.3105 3.52281 34.5492 2.70906 33.6305 1.79031C32.1474 0.320312 31.8849 0.123438 31.5042 0.123438C31.1236 0.123438 30.8611 0.320312 29.378 1.79031Z" fill="#5FC544"/>
<path d="M10.8252 7.80244C10.4971 8.11744 10.4971 8.15682 10.4971 10.4274V12.7243H12.5971V11.0837L18.1096 16.5962L18.8577 15.8349L19.6189 15.0868L14.1064 9.57432H15.7471V7.47432H13.4502C11.1796 7.47432 11.1402 7.47432 10.8252 7.80244Z" fill="#5FC544"/>
<path d="M47.2518 7.47432V9.57432H48.8924L43.3799 15.0868L44.1411 15.8349L44.8893 16.5962L50.4018 11.0837V12.7243H52.5018V10.4274C52.5018 7.30369 52.6724 7.47432 49.5486 7.47432H47.2518Z" fill="#5FC544"/>
<path d="M1.66351 22.1464C-0.541491 24.3777 -0.541491 24.1677 1.70288 26.4252L3.40913 28.1445L4.91851 26.6352L4.26226 25.9789L3.61913 25.3227H10.4966V23.2227H3.61913L4.23601 22.5927C4.57726 22.2514 4.85288 21.9102 4.85288 21.8314C4.85288 21.6608 3.63226 20.4664 3.46163 20.4664C3.39601 20.4664 2.58226 21.2277 1.66351 22.1464Z" fill="#5FC544"/>
<path d="M58.7616 21.0964C58.4204 21.4377 58.1447 21.7789 58.1447 21.8445C58.1447 21.9102 58.4204 22.2514 58.7616 22.5927L59.3785 23.2227H52.501V25.3227H59.3785L58.7354 25.9789L58.0791 26.6352L59.5885 28.1445L61.2947 26.4252C63.5391 24.1677 63.5391 24.3777 61.3341 22.1464C60.4154 21.2277 59.6016 20.4664 59.5229 20.4664C59.4441 20.4664 59.1029 20.7552 58.7616 21.0964Z" fill="#5FC544"/>
<path d="M15.0281 23.5497L14.7 23.8647V36.9372L11.55 36.8584V36.1365C11.55 35.5459 11.4975 35.3622 11.2219 35.0997L10.9069 34.7715H0.643125L0.328125 35.0997L0 35.4147V48.8284L0.328125 49.1434L0.643125 49.4715H10.9069L11.2219 49.1434C11.4975 48.8809 11.55 48.6972 11.55 48.0934C11.55 47.3978 11.5631 47.3715 11.9175 47.3715C12.1144 47.3715 12.5344 47.5553 12.8625 47.7784C13.86 48.4478 15.4744 49.209 16.8656 49.6684C18.8212 50.3115 20.5012 50.5215 23.6644 50.5215H26.3681L26.2894 51.1778C26.1712 52.2015 26.4469 52.9628 27.2212 53.7503C27.6806 54.1965 28.0744 54.459 28.4812 54.5772C28.9275 54.6953 30.6337 54.7215 35.5687 54.6822C41.1469 54.6428 42.1838 54.6034 42.9056 54.4197C45.1106 53.829 47.0269 52.779 48.615 51.2828C49.4156 50.5478 49.7437 50.3115 49.8881 50.4034C49.9931 50.469 52.7756 50.5215 56.2144 50.5215H62.3569L62.6719 50.1934L63 49.8784V36.4647L62.6719 36.1497L62.3569 35.8215H49.9931L49.6781 36.1497C49.3894 36.4253 49.35 36.5828 49.35 37.3703V38.2628L48.8906 38.4859C48.6281 38.604 48.3919 38.709 48.3656 38.709C48.3262 38.709 48.3 35.3753 48.3 31.2934V23.8647L47.9719 23.5497L47.6569 23.2215H15.3431L15.0281 23.5497ZM19.95 25.3215V32.0284L20.2781 32.3434C20.8294 32.9078 21.2887 32.7897 22.26 31.8578L23.1 31.0572L23.94 31.8578C24.6094 32.5009 24.8719 32.6715 25.2 32.6715C25.5281 32.6715 25.7906 32.5009 26.46 31.8578L27.3 31.0572L28.14 31.8578C29.1112 32.7897 29.5706 32.9078 30.1219 32.3434L30.45 32.0284V25.3215H33.6V45.0222L33.2456 44.7728C32.5894 44.3265 32.025 44.2215 30.1087 44.2215H28.2319L28.3106 43.5653C28.4156 42.6334 28.1531 41.8328 27.4706 41.0715C26.6437 40.1528 26.1581 40.0215 23.5856 40.0215H21.4856L20.5537 39.3128C19.6219 38.604 18.2044 37.8297 17.2987 37.5409L16.8 37.3703V25.3215H19.95ZM28.35 25.3215V29.0097L28.0087 28.7472C27.3919 28.2615 26.985 28.3797 26.04 29.2853L25.2 30.0859L24.36 29.2853C23.415 28.3797 23.0081 28.2615 22.3912 28.7472L22.05 29.0097V25.3215H28.35ZM46.2 25.3215V39.6278L45.1631 40.1397C43.8112 40.8222 41.6456 42.2922 40.425 43.3553L39.4406 44.2215H35.7V25.3215H46.2ZM9.45 36.8715V47.3715H2.1V36.8715H9.45ZM60.9 37.9215V48.4215H51.45V37.9215H60.9ZM15.33 39.1815C17.0756 39.549 18.5456 40.284 19.9369 41.5178L20.6194 42.1215H23.1131C25.5806 42.1215 25.6069 42.1215 25.9219 42.4497C26.355 42.8697 26.355 43.4734 25.9219 43.8934C25.6069 44.2215 25.6069 44.2215 22.7719 44.2215H19.95V46.3215H31.9069L32.2219 46.6497C32.655 47.0697 32.655 47.6734 32.2219 48.1065L31.8806 48.4347L25.8825 48.3822C20.9737 48.3428 19.7269 48.2903 19.0312 48.1197C17.0362 47.634 15.2381 46.8465 13.7156 45.8097C13.0462 45.3503 12.8231 45.2715 12.2456 45.2715H11.55V38.9715H12.9281C13.6894 38.9715 14.7787 39.0634 15.33 39.1815ZM48.825 47.844C47.6831 49.5897 45.7012 51.1778 43.7719 51.8997C42 52.569 41.4094 52.6215 34.965 52.6215H28.9931L28.6781 52.2934C28.245 51.8734 28.245 51.2697 28.6781 50.8497L28.9931 50.5215H40.95V48.4215H38.1281C35.2931 48.4215 35.2931 48.4215 34.9781 48.0934C34.7681 47.8965 34.65 47.6209 34.65 47.3715C34.65 47.1222 34.7681 46.8465 34.9781 46.6497C35.2931 46.3215 35.3194 46.3215 37.7869 46.3215H40.2806L41.2388 45.4553C43.2469 43.644 44.9269 42.5547 47.5781 41.3472L49.2844 40.5597L49.3237 43.7884L49.35 47.0172L48.825 47.844Z" fill="#5FC544"/>
</svg>
