<svg width="56" height="58" viewBox="0 0 56 58" fill="none" xmlns="http://www.w3.org/2000/svg">
<path d="M26.3929 0.3507C26.0183 0.70693 26.0183 0.885044 26.4412 2.51183L27.0108 4.56977L21.5715 4.56205L16.3635 4.54851L14.8517 4.55267C14.413 4.78659 14.2273 4.89964 14.0516 5.02847C13.9005 5.13914 13.7832 5.32747 13.5437 5.78L13.5422 6.64409L13.548 14.7424L13.5117 22.8525H14.8566L14.8528 14.8976C14.889 7.08427 14.7661 6.42406 15.0199 6.10346C15.1846 5.8953 15.2835 5.8915 15.3174 5.87725C15.6955 5.71837 16.871 5.78819 19.9402 5.75257L23.2299 5.7509L23.2297 6.6948L23.2312 8.24095L20.5717 8.23941C17.9616 8.23941 18.1813 8.22991 17.7128 8.24665L17.3906 8.45207V22.8525H18.3573L18.7493 22.8569V16.2206L18.7448 9.54891L30.9242 9.5533H42.5245V24.7437L43.4912 24.7414L43.8492 24.7394L43.8518 16.5394L43.861 8.24321H43.7173C43.2484 8.24914 43.8475 8.23513 41.2374 8.24262L38.4323 8.24143L38.4294 6.70346L38.4331 5.75352H41.7391C45.2071 5.75352 45.925 5.57991 46.4228 6.34141L46.3692 15.3955L46.3913 23.8025H47.7493L47.7481 15.2087L47.7644 6.66998L47.7714 5.73689C47.288 4.83445 47.2763 4.98335 46.334 4.56668L45.4325 4.59375L40.277 4.58401L34.8377 4.5915L35.4073 2.51183C35.8302 0.885044 35.8302 0.70693 35.4556 0.3507L35.1656 0.0538425H26.6829L26.3929 0.3507ZM33.5126 3.32783C32.9265 5.21502 32.9933 5.12418 33.3679 5.48041C33.6803 5.71113 33.5101 5.75352 35.0931 5.75352H37.0836V6.73101L37.0724 8.23252L30.8962 8.24903L24.5737 8.24618L24.5693 6.75084L24.5661 5.74889L26.7554 5.75352C28.3383 5.75352 28.2402 5.75934 28.5182 5.47436C28.8927 5.11813 28.7241 4.99772 28.3011 3.35906L27.8076 1.36085L30.9383 1.35396L34.1576 1.36773L33.5126 3.32783Z" fill="#5FC544"/>
<path d="M21.5744 11.757C21.2723 12.042 21.2723 12.0658 21.2723 14.31C21.2723 17.3617 21.0669 17.1598 24.1724 17.1598C27.2779 17.1598 27.0725 17.3617 27.0725 14.31C27.0725 11.2583 27.2779 11.4602 24.1724 11.4602C21.8886 11.4602 21.8644 11.4602 21.5744 11.757ZM25.7407 14.2791L25.7452 15.8512L24.2218 15.86L22.6044 15.8549L22.6085 14.2835L22.6025 12.7641L24.177 12.7681L25.7441 12.7646L25.7407 14.2791Z" fill="#5FC544"/>
<path d="M29 11.4507V13.3506H29.9667L30.3311 13.3483L30.3265 12.4164L30.3334 11.4507H29Z" fill="#5FC544"/>
<path d="M32.8643 12.4105L32.8725 12.7671L36.724 12.7625L40.5908 12.7659L40.5978 12.4105V11.4606H32.8643V12.4105Z" fill="#5FC544"/>
<path d="M29 16.2019L29.0074 16.5627L34.8646 16.5645L40.5967 16.5627L40.6003 16.2019V15.252H29V16.2019Z" fill="#5FC544"/>
<path d="M21.5744 20.3102C21.2723 20.5952 21.2723 20.619 21.2723 22.8632C21.2723 25.9149 21.0669 25.7131 24.1724 25.7131C27.2779 25.7131 27.0725 25.9149 27.0725 22.8632C27.0725 19.8115 27.2779 20.0134 24.1724 20.0134C21.8886 20.0134 21.8644 20.0134 21.5744 20.3102ZM25.7363 22.8015L25.7497 24.4L24.2215 24.3923L22.5988 24.3966L22.6078 22.8723L22.6031 21.3269L24.1794 21.3273L25.7407 21.3308L25.7363 22.8015Z" fill="#5FC544"/>
<path d="M29 20.0124V21.9123H29.9667L30.3328 21.918V20.9539V20.0124H29Z" fill="#5FC544"/>
<path d="M32.8643 20.9565L32.8672 21.3198L36.7083 21.312L40.5919 21.3174V20.0077H36.7251L32.8666 20.0089L32.8643 20.9565Z" fill="#5FC544"/>
<path d="M29 24.749L29.0092 25.1025H34.768H40.5957L40.6003 24.749V23.7991H29V24.749Z" fill="#5FC544"/>
<path d="M39.2562 29.1597L26.0062 32.6565L25.1211 33.3054C23.3433 34.9897 22.9917 35.1776 22.7561 35.5734C22.648 35.755 22.5456 35.8831 22.5129 35.9842C22.4293 36.243 22.8012 36.3264 24.6975 36.6809L27.3141 37.0209L31.9936 35.8038C34.5795 35.0848 39.4016 33.8481 42.6552 32.9497C45.9079 32.092 48.6389 31.3474 48.6872 31.3481C48.7235 31.3487 48.8149 32.2592 48.7819 32.7931L48.7295 33.778L45.4517 34.6761C43.6548 35.1819 42.1848 35.6455 42.196 35.7051C42.2289 35.9075 42.479 36.7549 42.5026 36.7909C42.8211 36.7674 49.8555 34.8316 50.1809 34.8017C50.6316 34.5832 50.3452 34.7964 50.3272 33.0021C50.3126 31.5585 50.1174 30.9333 50.1764 30.8617C50.2736 30.8276 51.7059 30.5757 52.6045 30.3168C54.1344 29.8779 54.4379 29.8567 54.929 29.6774C56.7348 27.901 55.5607 25.6184 53.0108 25.6136C52.4878 25.6125 49.9147 26.3259 39.2562 29.1597ZM53.5775 27.0501C53.9105 27.376 54.0017 28.3347 53.6825 28.6384C53.5597 28.7552 52.98 28.838 52.4092 29.0071C50.6972 29.4906 50.1598 29.8545 50.0704 29.4136C50.0375 29.2112 49.968 28.4825 49.9733 28.1619L49.9355 27.5236L51.5348 27.0652C52.737 26.7161 53.2205 26.7119 53.5775 27.0501ZM48.6904 28.8014C48.7307 29.2889 48.7303 29.9283 48.6689 29.9867C48.5588 30.0681 33.9342 33.9588 33.7167 33.9554C33.6201 33.9539 33.0797 32.2708 33.1534 32.2007C33.1902 32.1656 48.427 27.9184 48.548 27.9084C48.5844 27.8971 48.6503 28.302 48.6904 28.8014ZM31.5114 33.576C31.6485 34.0532 31.7142 34.4699 31.653 34.5164C31.6039 34.5632 30.596 34.8559 29.4305 35.1818L27.2939 35.7655L26.3546 35.5605C25.8245 35.4571 25.3912 35.3552 25.3674 35.3311C25.3436 35.307 25.6509 34.9912 26.0438 34.6174L26.768 33.9401L28.8685 33.344C30.034 33.0181 31.0417 32.7372 31.1263 32.7386C31.199 32.7278 31.374 33.1106 31.5114 33.576Z" fill="#5FC544"/>
<path d="M0.302091 25.0524L0 25.3374V56.4719L0.302091 56.7569L0.592099 57.0537H18.3671L35.3843 57.0428L35.6678 56.7653L36.0149 56.455L36.0257 48.6421L36.0169 40.2626L35.7745 40.1144L35.5008 39.9511L27.732 39.9547H18.7747L18.7529 32.7489L18.7625 25.3874L18.5554 25.0462L18.3619 24.7417L9.66692 24.7426L0.592099 24.7555L0.302091 25.0524ZM5.82957 29.2084C5.82957 31.7733 5.80015 31.7733 6.10224 32.0583L6.39225 32.3551H12.9416L13.2316 32.0583C13.5337 31.7733 13.5249 31.7704 13.5249 29.2056L13.524 26.0114L15.4881 26.0005H17.4145L17.4004 33.3051V39.9547H9.66692L1.19635 39.9535L1.16395 33.3051L1.19326 25.9995L3.86677 26.0067L5.83385 26.0078L5.82957 29.2084ZM12.3245 28.5074L12.3216 31.05L9.6581 31.0412L7.1211 31.0312L7.12057 28.5623L7.12035 26.0067L9.62414 26.0032L12.32 26.0089L12.3245 28.5074ZM5.83523 44.4076C5.83523 46.9724 5.80015 46.9724 6.10224 47.2574L6.39225 47.5543H12.9416L13.2316 47.2574C13.5337 46.9724 13.5337 46.9724 13.5337 44.4076L13.5249 41.1479L15.4342 41.1433L17.3927 41.147L17.4004 48.5042L17.3974 55.863L9.67574 55.8519L1.18593 55.8424L1.15725 48.5042L1.19366 41.1644L3.84572 41.1445L5.81768 41.1479L5.83523 44.4076ZM12.326 43.6827L12.3305 46.243H9.66245L7.12278 46.2472L7.13018 43.851L7.12486 41.1448L9.66692 41.1387L12.3208 41.1459L12.326 43.6827ZM23.2259 44.403C23.2259 46.9679 23.2006 46.9724 23.5027 47.2574L23.7927 47.5543H30.342L30.632 47.2574C30.9341 46.9724 30.89 46.9811 30.89 44.4162L30.8885 41.1447L32.8158 41.1429L34.8056 41.1431L34.8009 48.5042L34.8038 55.8626L27.1002 55.8579L18.7609 55.8641L18.7642 48.5581L18.7529 41.1437L21.3023 41.1376L23.2286 41.138L23.2259 44.403ZM29.4836 43.7864L29.4843 46.247L27.0113 46.2519L24.5913 46.2453L24.5861 43.8144L24.5878 41.1383L26.9481 41.1376L29.4847 41.1524L29.4836 43.7864Z" fill="#5FC544"/>
<path d="M13.541 36.1486V38.0485H14.5077L14.872 38.0508V37.1031L14.8697 36.1511L14.5077 36.1486H13.541Z" fill="#5FC544"/>
<path d="M13.541 51.356V53.2559H14.7739L14.783 52.328L14.7812 51.3552L14.5077 51.356H13.541Z" fill="#5FC544"/>
<path d="M30.9473 51.356V53.2559H32.2771L32.2799 52.3013L32.2773 51.3549L31.914 51.356H30.9473Z" fill="#5FC544"/>
<path d="M46.3861 42.674C46.3499 47.1387 46.3917 47.736 46.15 48.0447C46.0171 48.2229 46.0611 48.2017 45.8798 48.3323C45.5656 48.5698 44.9965 48.4449 41.9273 48.4805L38.6768 48.5161V49.4661L38.6813 49.8174L42.0804 49.8111L45.5132 49.8116L46.274 49.7996C46.9371 49.2538 47.0916 49.284 47.7391 48.4873L47.74 47.6534L47.7493 42.8813L47.7496 38.077L47.3891 38.0549H46.4224L46.3861 42.674Z" fill="#5FC544"/>
<path d="M42.5435 39.0073V44.7069H38.6768V46.0195L41.2547 46.011C43.8648 46.011 43.3594 46.0022 43.8736 46.0103L43.8771 42.549L43.8735 39.0073H42.5435Z" fill="#5FC544"/>
</svg>
