<svg width="16" height="17" viewBox="0 0 16 17" fill="none" xmlns="http://www.w3.org/2000/svg">
<rect x="1" y="1.05371" width="14" height="14" rx="6" fill="url(#paint0_radial_1837_2130)"/>
<rect x="1" y="1.05371" width="14" height="14" rx="6" fill="url(#paint1_radial_1837_2130)"/>
<path d="M1 5.85371C1 4.17355 1 3.33347 1.32698 2.69174C1.6146 2.12725 2.07354 1.66831 2.63803 1.38069C3.27976 1.05371 4.11984 1.05371 5.8 1.05371H10.2C11.8802 1.05371 12.7202 1.05371 13.362 1.38069C13.9265 1.66831 14.3854 2.12725 14.673 2.69174C15 3.33347 15 4.17355 15 5.85371V10.2537C15 11.9339 15 12.7739 14.673 13.4157C14.3854 13.9802 13.9265 14.4391 13.362 14.7267C12.7202 15.0537 11.8802 15.0537 10.2 15.0537H5.8C4.11984 15.0537 3.27976 15.0537 2.63803 14.7267C2.07354 14.4391 1.6146 13.9802 1.32698 13.4157C1 12.7739 1 11.9339 1 10.2537V5.85371Z" fill="black"/>
<path d="M11.5 5.30371C11.5 5.71792 11.1642 6.05371 10.75 6.05371C10.3358 6.05371 10 5.71792 10 5.30371C10 4.8895 10.3358 4.55371 10.75 4.55371C11.1642 4.55371 11.5 4.8895 11.5 5.30371Z" fill="white"/>
<path fill-rule="evenodd" clip-rule="evenodd" d="M8 10.5537C9.38071 10.5537 10.5 9.43442 10.5 8.05371C10.5 6.673 9.38071 5.55371 8 5.55371C6.61929 5.55371 5.5 6.673 5.5 8.05371C5.5 9.43442 6.61929 10.5537 8 10.5537ZM8 9.55371C8.82843 9.55371 9.5 8.88214 9.5 8.05371C9.5 7.22528 8.82843 6.55371 8 6.55371C7.17157 6.55371 6.5 7.22528 6.5 8.05371C6.5 8.88214 7.17157 9.55371 8 9.55371Z" fill="white"/>
<path fill-rule="evenodd" clip-rule="evenodd" d="M3 7.85371C3 6.17355 3 5.33347 3.32698 4.69174C3.6146 4.12725 4.07354 3.66831 4.63803 3.38069C5.27976 3.05371 6.11984 3.05371 7.8 3.05371H8.2C9.88016 3.05371 10.7202 3.05371 11.362 3.38069C11.9265 3.66831 12.3854 4.12725 12.673 4.69174C13 5.33347 13 6.17355 13 7.85371V8.25371C13 9.93387 13 10.7739 12.673 11.4157C12.3854 11.9802 11.9265 12.4391 11.362 12.7267C10.7202 13.0537 9.88016 13.0537 8.2 13.0537H7.8C6.11984 13.0537 5.27976 13.0537 4.63803 12.7267C4.07354 12.4391 3.6146 11.9802 3.32698 11.4157C3 10.7739 3 9.93387 3 8.25371V7.85371ZM7.8 4.05371H8.2C9.05658 4.05371 9.63887 4.05449 10.089 4.09126C10.5274 4.12708 10.7516 4.19201 10.908 4.2717C11.2843 4.46344 11.5903 4.76941 11.782 5.14573C11.8617 5.30213 11.9266 5.52633 11.9624 5.96475C11.9992 6.41484 12 6.99713 12 7.85371V8.25371C12 9.11029 11.9992 9.69258 11.9624 10.1427C11.9266 10.5811 11.8617 10.8053 11.782 10.9617C11.5903 11.338 11.2843 11.644 10.908 11.8357C10.7516 11.9154 10.5274 11.9803 10.089 12.0162C9.63887 12.0529 9.05658 12.0537 8.2 12.0537H7.8C6.94342 12.0537 6.36113 12.0529 5.91104 12.0162C5.47262 11.9803 5.24842 11.9154 5.09202 11.8357C4.71569 11.644 4.40973 11.338 4.21799 10.9617C4.1383 10.8053 4.07337 10.5811 4.03755 10.1427C4.00078 9.69258 4 9.11029 4 8.25371V7.85371C4 6.99713 4.00078 6.41484 4.03755 5.96475C4.07337 5.52633 4.1383 5.30213 4.21799 5.14573C4.40973 4.76941 4.71569 4.46344 5.09202 4.2717C5.24842 4.19201 5.47262 4.12708 5.91104 4.09126C6.36113 4.05449 6.94342 4.05371 7.8 4.05371Z" fill="white"/>
<defs>
<radialGradient id="paint0_radial_1837_2130" cx="0" cy="0" r="1" gradientUnits="userSpaceOnUse" gradientTransform="translate(6 11.5537) rotate(-55.3758) scale(12.7598)">
<stop stop-color="#B13589"/>
<stop offset="0.79309" stop-color="#C62F94"/>
<stop offset="1" stop-color="#8A3AC8"/>
</radialGradient>
<radialGradient id="paint1_radial_1837_2130" cx="0" cy="0" r="1" gradientUnits="userSpaceOnUse" gradientTransform="translate(5.5 15.5537) rotate(-65.1363) scale(11.2971)">
<stop stop-color="#E0E8B7"/>
<stop offset="0.444662" stop-color="#FB8A2E"/>
<stop offset="0.71474" stop-color="#E2425C"/>
<stop offset="1" stop-color="#E2425C" stop-opacity="0"/>
</radialGradient>
</defs>
</svg>
