<svg width="16" height="17" viewBox="0 0 16 17" fill="none" xmlns="http://www.w3.org/2000/svg">
<rect x="1" y="1.55371" width="14" height="14" rx="7" fill="black"/>
<path d="M6.30928 5.39979C6.30928 5.86706 5.90426 6.24586 5.40464 6.24586C4.90502 6.24586 4.5 5.86706 4.5 5.39979C4.5 4.93251 4.90502 4.55371 5.40464 4.55371C5.90426 4.55371 6.30928 4.93251 6.30928 5.39979Z" fill="white"/>
<path d="M4.62371 6.86776H6.1701V11.5537H4.62371V6.86776Z" fill="white"/>
<path d="M8.65979 6.86776H7.1134V11.5537H8.65979C8.65979 11.5537 8.65979 10.0785 8.65979 9.15614C8.65979 8.60252 8.84883 8.04648 9.60309 8.04648C10.4555 8.04648 10.4504 8.77098 10.4464 9.33226C10.4412 10.0659 10.4536 10.8146 10.4536 11.5537H12V9.08057C11.9869 7.5014 11.5754 6.77375 10.2216 6.77375C9.4177 6.77375 8.91936 7.13874 8.65979 7.46896V6.86776Z" fill="white"/>
</svg>
