<svg width="729" height="862" viewBox="0 0 729 862" fill="none" xmlns="http://www.w3.org/2000/svg">
<path d="M307.363 463.802C329.671 484.097 355.9 499.09 384.251 507.753C412.602 516.416 442.404 518.544 471.613 513.991C500.822 509.438 528.746 498.313 553.47 481.377C578.195 464.441 599.135 442.095 614.853 415.874L539.085 365.901C530.237 380.661 518.451 393.239 504.534 402.771C490.617 412.304 474.899 418.567 458.457 421.13C442.016 423.692 425.241 422.495 409.283 417.618C393.325 412.742 378.561 404.303 366.004 392.879L307.363 463.802Z" fill="#EDEEED"/>
<path d="M481.723 316.24C472.14 286.941 456.629 260.164 436.254 237.745C415.878 215.325 391.121 197.794 363.68 186.353C336.238 174.912 306.763 169.833 277.274 171.463C247.786 173.093 218.982 181.395 192.839 195.798L234.458 278.912C249.174 270.805 265.387 266.132 281.985 265.214C298.584 264.296 315.175 267.156 330.621 273.595C346.068 280.035 360.003 289.903 371.472 302.523C382.941 315.142 391.672 330.215 397.066 346.706L481.723 316.24Z" fill="#EDEEED"/>
<path d="M109.73 280.765C91.8912 314.284 82.9431 352.206 83.8173 390.584C84.6915 428.962 95.356 466.392 114.701 498.979C134.046 531.567 161.364 558.12 193.812 575.875C226.26 593.63 262.651 601.938 299.199 599.934L294.528 506.181C273.956 507.309 253.471 502.632 235.207 492.638C216.943 482.644 201.566 467.698 190.677 449.355C179.788 431.012 173.785 409.944 173.293 388.341C172.801 366.739 177.838 345.394 187.879 326.526L109.73 280.765Z" fill="#EDEEED"/>
<path d="M237.453 731.76C267.021 754.382 301.829 768.278 338.254 772.002C374.679 775.726 411.389 769.141 444.565 752.933C477.74 736.724 506.168 711.485 526.889 679.842C547.61 648.199 559.867 611.309 562.384 573.012L473.094 566.555C471.677 588.112 464.778 608.877 453.115 626.688C441.451 644.5 425.45 658.706 406.776 667.83C388.102 676.953 367.438 680.659 346.935 678.563C326.432 676.467 306.84 668.646 290.196 655.912L237.453 731.76Z" fill="#EDEEED"/>
</svg>
