<svg width="729" height="555" viewBox="0 0 729 555" fill="none" xmlns="http://www.w3.org/2000/svg">
<path d="M421.637 304.802C399.329 325.097 373.1 340.09 344.749 348.753C316.398 357.416 286.596 359.544 257.387 354.991C228.178 350.438 200.254 339.313 175.53 322.377C150.805 305.441 129.865 283.095 114.147 256.874L189.915 206.901C198.763 221.661 210.549 234.239 224.466 243.771C238.383 253.304 254.101 259.567 270.543 262.13C286.984 264.692 303.759 263.495 319.717 258.618C335.675 253.742 350.439 245.303 362.996 233.879L421.637 304.802Z" fill="#D2EFCF"/>
<path d="M247.277 157.24C256.86 127.941 272.371 101.164 292.746 78.7447C313.122 56.3251 337.879 38.7936 365.32 27.3528C392.762 15.912 422.237 10.8326 451.726 12.463C481.214 14.0934 510.018 22.3951 536.161 36.7985L494.542 119.912C479.826 111.805 463.613 107.132 447.015 106.214C430.416 105.296 413.825 108.156 398.379 114.595C382.932 121.035 368.997 130.903 357.528 143.523C346.059 156.142 337.328 171.215 331.934 187.706L247.277 157.24Z" fill="#D2EFCF"/>
<path d="M619.27 121.765C637.109 155.284 646.057 193.206 645.183 231.584C644.309 269.962 633.644 307.392 614.299 339.979C594.954 372.567 567.636 399.12 535.188 416.875C502.74 434.63 466.349 442.938 429.801 440.934L434.472 347.181C455.044 348.309 475.529 343.632 493.793 333.638C512.057 323.644 527.434 308.698 538.323 290.355C549.212 272.012 555.215 250.944 555.707 229.341C556.199 207.739 551.162 186.394 541.121 167.526L619.27 121.765Z" fill="#D2EFCF"/>
<path d="M491.547 572.76C461.979 595.382 427.171 609.278 390.746 613.002C354.321 616.726 317.611 610.141 284.435 593.933C251.26 577.724 222.832 552.485 202.111 520.842C181.39 489.199 169.133 452.309 166.616 414.012L255.906 407.555C257.323 429.112 264.222 449.877 275.885 467.688C287.549 485.5 303.55 499.706 322.224 508.83C340.898 517.953 361.562 521.659 382.065 519.563C402.568 517.467 422.16 509.646 438.804 496.912L491.547 572.76Z" fill="#D2EFCF"/>
</svg>
