<svg width="700" height="700" viewBox="0 0 499 404" fill="none" xmlns="http://www.w3.org/2000/svg">
<mask id="mask0_2071_340" style="mask-type:alpha" maskUnits="userSpaceOnUse" x="0" y="0" width="499" height="404">
<rect y="0.553467" width="498.803" height="403" fill="#3E893E"/>
</mask>
<g mask="url(#mask0_2071_340)">
<path d="M266.118 214.547C249.869 228.418 230.764 238.665 210.113 244.586C189.462 250.507 167.755 251.961 146.479 248.849C125.204 245.738 104.864 238.134 86.8544 226.558C68.8452 214.983 53.5929 199.711 42.1437 181.789L97.3329 147.635C103.777 157.722 112.363 166.319 122.5 172.834C132.637 179.35 144.086 183.63 156.061 185.382C168.037 187.133 180.256 186.314 191.88 182.982C203.504 179.649 214.258 173.881 223.404 166.073L266.118 214.547Z" fill="#EDEEED"/>
<path d="M139.115 113.693C146.096 93.6688 157.394 75.3674 172.235 60.0444C187.077 44.7213 205.11 32.7391 225.098 24.9197C245.086 17.1003 266.556 13.6287 288.035 14.743C309.515 15.8574 330.495 21.5312 349.537 31.3755L319.222 88.1809C308.504 82.6398 296.694 79.4461 284.604 78.8188C272.514 78.1916 260.428 80.1457 249.177 84.5471C237.926 88.9485 227.776 95.6931 219.422 104.318C211.068 112.943 204.708 123.245 200.779 134.516L139.115 113.693Z" fill="#EDEEED"/>
<path d="M410.073 89.4475C423.067 112.357 429.585 138.275 428.948 164.505C428.311 190.735 420.543 216.317 406.453 238.59C392.362 260.862 372.464 279.01 348.829 291.145C325.194 303.28 298.686 308.958 272.065 307.589L275.467 243.512C290.452 244.283 305.373 241.086 318.676 234.256C331.98 227.425 343.18 217.21 351.112 204.673C359.043 192.136 363.416 177.737 363.774 162.972C364.133 148.208 360.464 133.619 353.15 120.724L410.073 89.4475Z" fill="#EDEEED"/>
<path d="M317.04 397.687C295.503 413.149 270.149 422.646 243.617 425.191C217.085 427.736 190.345 423.236 166.181 412.158C142.016 401.08 121.309 383.83 106.216 362.203C91.123 340.576 82.1953 315.363 80.362 289.188L145.4 284.775C146.432 299.509 151.457 313.701 159.953 325.874C168.448 338.048 180.104 347.758 193.706 353.993C207.308 360.228 222.359 362.762 237.294 361.329C252.228 359.897 266.499 354.551 278.622 345.848L317.04 397.687Z" fill="#EDEEED"/>
</g>
</svg>
