<svg width="14" height="12" viewBox="0 0 14 12" fill="none" xmlns="http://www.w3.org/2000/svg">
<path d="M4.39437 11.5537C2.77687 11.5537 1.26909 11.1037 0 10.3273C1.0775 10.394 2.97903 10.2342 4.16179 9.15513C2.38254 9.07704 1.58013 7.77176 1.47547 7.21395C1.62665 7.26974 2.34765 7.33667 2.75467 7.18049C0.707949 6.68961 0.393964 4.97156 0.463738 4.44722C0.847498 4.70381 1.49873 4.79306 1.75457 4.77075C-0.152604 3.46548 0.533513 1.50199 0.870757 1.07805C2.23941 2.89177 4.2906 3.91042 6.82819 3.96708C6.78034 3.76636 6.75508 3.55739 6.75508 3.34276C6.75508 1.80241 8.05671 0.553711 9.66235 0.553711C10.5013 0.553711 11.2572 0.894593 11.7878 1.43985C12.3485 1.3142 13.1922 1.02005 13.6046 0.765678C13.3967 1.47967 12.7495 2.07529 12.358 2.29605C12.3612 2.30356 12.3548 2.28851 12.358 2.29605C12.7019 2.24629 13.6324 2.07523 14 1.83667C13.8182 2.23779 13.132 2.90471 12.5689 3.27809C12.6736 7.698 9.13824 11.5537 4.39437 11.5537Z" fill="black"/>
</svg>
