<svg width="52" height="50" viewBox="0 0 52 50" fill="none" xmlns="http://www.w3.org/2000/svg">
<path d="M50.0719 38.7872C49.5996 38.6977 49.1522 38.9937 49.0567 39.4592C48.0965 44.1929 44.372 47.3737 39.7897 47.3737C35.4638 47.3737 31.6627 44.5345 30.3704 40.4907H34.4142V38.77H27.5312V45.6529H29.252V42.3422C31.1181 46.3696 35.2014 49.0944 39.7906 49.0944C45.2143 49.0944 49.6159 45.3595 50.7439 39.8016C50.8385 39.3353 50.5374 38.8819 50.0719 38.7872Z" fill="#5FC544"/>
<path d="M49.9007 28.4458V32.1523C47.9649 28.3202 44.1328 25.8647 39.7906 25.8647C34.5346 25.8647 29.8611 29.3036 28.426 34.2283C28.2935 34.6843 28.5551 35.1618 29.0119 35.2943C29.4688 35.4268 29.9463 35.1644 30.0779 34.7084C31.2807 30.5813 35.3657 27.5855 39.7906 27.5855C43.7181 27.5855 47.157 29.9652 48.6781 33.608H44.7385V35.3287H51.6214V28.4458H49.9007Z" fill="#5FC544"/>
<path d="M26.4166 26.965C26.2187 26.7138 25.4891 25.7502 24.7811 24.3418L24.7415 24.2626C24.7372 24.2549 24.7337 24.2463 24.7294 24.2385C24.6357 24.0501 24.5436 23.8505 24.4507 23.644L24.4077 23.5468C24.3595 23.4375 24.3113 23.3248 24.2631 23.207C24.2468 23.1665 24.2304 23.1261 24.2141 23.0848C24.1685 22.9712 24.1229 22.8559 24.0738 22.7234C23.9852 22.4894 23.9043 22.2451 23.8252 21.9947L23.7632 21.7917C23.6824 21.5249 23.6075 21.2522 23.5421 20.9709C23.5404 20.9648 23.5387 20.9597 23.5378 20.9537L23.5232 20.8909L23.4604 20.613L23.1662 20.4228C22.6671 20.1019 22.3695 19.5633 22.3695 18.9817V15.5403C22.3695 15.0576 22.5742 14.6068 22.9459 14.2712L23.2298 14.0157V8.35278L23.2066 8.33471C23.1765 7.71439 23.2143 5.80954 24.603 4.22475C26.0286 2.59867 28.4617 1.77444 31.8335 1.77444C35.1932 1.77444 37.6211 2.59264 39.0485 4.20755C40.7236 6.10121 40.4474 8.52399 40.4448 8.54464L40.4371 14.0157L40.721 14.2721C41.0927 14.6068 41.2975 15.0576 41.2975 15.5403V18.9817C41.2975 19.7328 40.8062 20.3901 40.074 20.6155C39.6206 20.7549 39.3659 21.2376 39.5062 21.691C39.6456 22.1444 40.1256 22.4017 40.5816 22.2588C42.0391 21.8097 43.0182 20.4925 43.0182 18.9817V15.5403C43.0182 14.7117 42.7093 13.9081 42.1578 13.2818V8.70553C42.2069 8.23233 42.3953 5.4155 40.3579 3.09166C38.5908 1.07582 35.7232 0.0537109 31.8335 0.0537109C27.9438 0.0537109 25.0762 1.07582 23.309 3.09079C22.0743 4.49921 21.6597 6.08572 21.5332 7.22484C20.0577 6.46256 18.3206 6.07626 16.3469 6.07626C7.40859 6.07626 6.88893 13.6948 6.88291 13.8195V17.7591C6.32539 18.3674 6.02255 19.0677 6.02255 19.7638V22.7355C6.02255 23.6638 6.4381 24.5293 7.15048 25.1144C7.85942 27.7901 9.60596 29.812 10.2856 30.5218V32.8817C10.2856 33.5588 9.91655 34.18 9.27816 34.5293L3.55588 38.1196C1.36196 39.3155 0 41.6101 0 44.1069V47.3737H23.2298C23.7056 47.3737 24.0902 46.9891 24.0902 46.5133C24.0902 46.0376 23.7056 45.653 23.2298 45.653H13.7658V43.7275C13.7658 41.5155 14.972 39.4825 16.913 38.4242L24.5901 34.2377C25.8737 33.5365 26.6713 32.1917 26.6713 30.73V27.2722L26.4717 27.033C26.4691 27.0313 26.4476 27.0037 26.4166 26.965ZM24.9505 30.73C24.9505 31.5628 24.4963 32.3268 23.7658 32.726L21.4893 33.9675L20.9309 34.2721L16.0897 36.9125C13.5946 38.2736 12.0451 40.884 12.0451 43.7266V45.653H1.72073V44.1069C1.72073 42.2399 2.7394 40.5244 4.42399 39.6046L10.1463 36.0143C11.2931 35.3888 12.0055 34.1895 12.0055 32.8817L12.0047 29.793L11.7336 29.5375C11.7104 29.5169 9.42098 27.3384 8.74904 24.4132L8.67074 24.0725L8.3765 23.8832C7.97987 23.6268 7.74327 23.1975 7.74327 22.7355V19.7638C7.74327 19.4549 7.9532 19.0858 8.32058 18.7537L8.60364 18.4982L8.60192 13.8703C8.61826 13.6225 9.06479 7.79698 16.3469 7.79698C18.4066 7.79698 20.1403 8.27276 21.5091 9.21142V13.2818C20.9576 13.9081 20.6487 14.7117 20.6487 15.5403V18.9817C20.6487 19.5977 20.8303 20.1802 21.1314 20.6956C21.3422 21.056 21.602 21.3881 21.9367 21.6566C21.9427 21.6789 21.9496 21.6996 21.9556 21.7211C22.0055 21.9112 22.0571 22.0988 22.1122 22.2795L22.1836 22.5135C22.1974 22.5565 22.2129 22.6013 22.2266 22.6443C22.255 22.732 22.2826 22.8189 22.3127 22.905C22.3643 23.0573 22.4194 23.2138 22.483 23.3842C22.5088 23.4522 22.5364 23.5115 22.5622 23.5778C22.6353 23.7653 22.7093 23.9469 22.7867 24.1258C22.8014 24.1594 22.8151 24.1981 22.8297 24.2316L22.8814 24.3487C22.9046 24.4011 22.9287 24.4476 22.9519 24.4992C23.0328 24.6756 23.1128 24.8477 23.1945 25.0137C23.21 25.0447 23.2247 25.08 23.2401 25.1109L23.3047 25.2366C23.321 25.2684 23.3365 25.2933 23.3528 25.3243C23.4922 25.5927 23.629 25.844 23.765 26.0788C23.783 26.1107 23.8011 26.1425 23.8192 26.1744C23.9663 26.4256 24.1074 26.6562 24.2416 26.8635C24.2476 26.873 24.2545 26.8833 24.2605 26.8936C24.5445 27.3315 24.7905 27.6748 24.9505 27.8839V30.73Z" fill="#5FC544"/>
</svg>
