<svg width="14" height="15" viewBox="0 0 14 15" fill="none" xmlns="http://www.w3.org/2000/svg">
<circle cx="7" cy="7.05371" r="7" fill="white"/>
<path fill-rule="evenodd" clip-rule="evenodd" d="M10.9554 4.38613C11.0951 4.52582 11.1957 4.69966 11.2473 4.89035C11.5444 6.08631 11.4758 7.97515 11.2531 9.21727C11.2015 9.40796 11.1008 9.5818 10.9611 9.72148C10.8215 9.86117 10.6476 9.96182 10.4569 10.0134C9.75884 10.2038 6.94923 10.2038 6.94923 10.2038C6.94923 10.2038 4.13961 10.2038 3.44154 10.0134C3.25085 9.96182 3.07701 9.86117 2.93732 9.72148C2.79764 9.5818 2.69698 9.40796 2.64538 9.21727C2.34654 8.0265 2.42846 6.1365 2.63961 4.89612C2.69121 4.70543 2.79187 4.53159 2.93155 4.3919C3.07124 4.25222 3.24508 4.15156 3.43577 4.09996C4.13384 3.90958 6.94346 3.90381 6.94346 3.90381C6.94346 3.90381 9.75307 3.90381 10.4512 4.09419C10.6418 4.14579 10.8157 4.24645 10.9554 4.38613ZM8.38 7.05381L6.04923 8.4038V5.70381L8.38 7.05381Z" fill="black"/>
</svg>
